<svg width="29" height="31" viewBox="0 0 29 31" fill="none" xmlns="http://www.w3.org/2000/svg">
<path d="M13.5573 15.4543C17.2726 15.4543 20.2845 12.4424 20.2845 8.72714C20.2845 5.01185 17.2726 2 13.5573 2C9.84205 2 6.8302 5.01185 6.8302 8.72714C6.8302 12.4424 9.84205 15.4543 13.5573 15.4543Z" stroke="#292D32" stroke-width="3" stroke-linecap="round" stroke-linejoin="round"/>
<path d="M23.258 20.4862L18.495 25.2492C18.3067 25.4375 18.1318 25.7872 18.0914 26.0428L17.8358 27.8592C17.7416 28.5184 18.199 28.9759 18.8583 28.8817L20.6746 28.6261C20.9303 28.5857 21.2935 28.4108 21.4684 28.2224L26.2312 23.4596C27.052 22.6389 27.4421 21.6837 26.2312 20.4728C25.0338 19.2753 24.0787 19.6655 23.258 20.4862Z" stroke="#292D32" stroke-width="3" stroke-miterlimit="10" stroke-linecap="round" stroke-linejoin="round"/>
<path d="M22.5718 21.1724C22.9754 22.6254 24.1054 23.7556 25.5585 24.1592" stroke="#292D32" stroke-width="3" stroke-miterlimit="10" stroke-linecap="round" stroke-linejoin="round"/>
<path d="M2 28.9086C2 23.7018 7.17994 19.4906 13.5572 19.4906C14.9565 19.4906 16.3019 19.6924 17.5531 20.0691" stroke="#292D32" stroke-width="3" stroke-linecap="round" stroke-linejoin="round"/>
</svg>
