<svg width="20" height="20" viewBox="0 0 20 20" fill="none" xmlns="http://www.w3.org/2000/svg">
<path d="M11.115 0.433139C10.809 0.154294 10.4118 0 10 0C9.58824 0 9.19105 0.154294 8.885 0.433139L0 8.52779V17.3007C0 18.0166 0.280952 18.7032 0.781049 19.2094C1.28115 19.7156 1.95942 20 2.66667 20H17.3333C18.0406 20 18.7189 19.7156 19.219 19.2094C19.719 18.7032 20 18.0166 20 17.3007V8.52779L11.115 0.433139ZM12.5 18.3104H7.5V14.0707C7.5 13.3996 7.76339 12.7559 8.23223 12.2813C8.70107 11.8067 9.33696 11.5401 10 11.5401C10.663 11.5401 11.2989 11.8067 11.7678 12.2813C12.2366 12.7559 12.5 13.3996 12.5 14.0707V18.3104ZM18.3333 17.2981C18.3333 17.5666 18.228 17.8241 18.0404 18.0139C17.8529 18.2037 17.5985 18.3104 17.3333 18.3104H14.1667V14.0707C14.1667 12.9521 13.7277 11.8793 12.9463 11.0883C12.1649 10.2974 11.1051 9.853 10 9.853C8.89493 9.853 7.83512 10.2974 7.05372 11.0883C6.27232 11.8793 5.83333 12.9521 5.83333 14.0707V18.3104H2.66667C2.40145 18.3104 2.1471 18.2037 1.95956 18.0139C1.77202 17.8241 1.66667 17.5666 1.66667 17.2981V9.27855L10 1.68665L18.3333 9.27855V17.2981Z" fill="#E7DCDC"/>
</svg>
