<svg width="25" height="31" viewBox="0 0 25 31" fill="none" xmlns="http://www.w3.org/2000/svg">
<path fill-rule="evenodd" clip-rule="evenodd" d="M12.5 2.77778C10.1987 2.77778 8.33333 4.64326 8.33333 6.94444V11.1111V11.1143C8.74614 11.1111 9.19164 11.1111 9.67289 11.1111H15.3271C15.8083 11.1111 16.2539 11.1111 16.6667 11.1143V11.1111V6.94444C16.6667 4.64326 14.8012 2.77778 12.5 2.77778ZM19.434 11.2824C19.4408 11.2262 19.4444 11.1691 19.4444 11.1111V6.94444C19.4444 3.10914 16.3353 0 12.5 0C8.66469 0 5.55556 3.10914 5.55556 6.94444V11.1111C5.55556 11.1691 5.55911 11.2263 5.56601 11.2824C5.11888 11.358 4.69626 11.4702 4.28692 11.6397C2.58533 12.3445 1.23343 13.6964 0.528611 15.3981C0.235389 16.106 0.113764 16.8536 0.0560838 17.699C-1.34576e-05 18.5212 -1.34619e-05 19.5315 4.26974e-07 20.784V20.8826C-1.34619e-05 22.1351 -1.34576e-05 23.1454 0.0560838 23.9676C0.113764 24.8131 0.235389 25.5607 0.528611 26.2686C1.23343 27.9703 2.58533 29.3221 4.28692 30.0269C4.99483 30.3201 5.74244 30.4418 6.58793 30.4994C7.41015 30.5556 8.42045 30.5556 9.67289 30.5556H15.3271C16.5796 30.5556 17.5899 30.5556 18.4121 30.4994C19.2575 30.4418 20.0051 30.3201 20.7131 30.0269C22.4147 29.3221 23.7665 27.9703 24.4714 26.2686C24.7646 25.5607 24.8862 24.8131 24.9439 23.9676C25 23.1454 25 22.1351 25 20.8826V20.784C25 19.5315 25 18.5212 24.9439 17.699C24.8862 16.8536 24.7646 16.106 24.4714 15.3981C23.7665 13.6964 22.4147 12.3445 20.7131 11.6397C20.3038 11.4702 19.8811 11.358 19.434 11.2824ZM6.77701 13.9385C6.07297 13.9865 5.66297 14.0764 5.34993 14.2061C4.32899 14.6289 3.51783 15.4401 3.09494 16.461C2.96528 16.774 2.87546 17.184 2.82742 17.8881C2.77853 18.6046 2.77778 19.52 2.77778 20.8333C2.77778 22.1467 2.77853 23.0621 2.82742 23.7786C2.87546 24.4826 2.96528 24.8926 3.09494 25.2057C3.51783 26.2265 4.32899 27.0378 5.34993 27.4606C5.66297 27.5903 6.07297 27.6801 6.77701 27.7282C7.49353 27.7771 8.40893 27.7778 9.72222 27.7778H15.2778C16.5911 27.7778 17.5065 27.7771 18.2231 27.7282C18.9271 27.6801 19.3371 27.5903 19.6501 27.4606C20.671 27.0378 21.4822 26.2265 21.905 25.2057C22.0347 24.8926 22.1246 24.4826 22.1726 23.7786C22.2215 23.0621 22.2222 22.1467 22.2222 20.8333C22.2222 19.52 22.2215 18.6046 22.1726 17.8881C22.1246 17.184 22.0347 16.774 21.905 16.461C21.4822 15.4401 20.671 14.6289 19.6501 14.2061C19.3371 14.0764 18.9271 13.9865 18.2231 13.9385C17.5065 13.8896 16.5911 13.8889 15.2778 13.8889H9.72222C8.40893 13.8889 7.49353 13.8896 6.77701 13.9385ZM12.5 18.0556C13.2671 18.0556 13.8889 18.6774 13.8889 19.4444V22.2222C13.8889 22.9893 13.2671 23.6111 12.5 23.6111C11.7329 23.6111 11.1111 22.9893 11.1111 22.2222V19.4444C11.1111 18.6774 11.7329 18.0556 12.5 18.0556Z" fill="#0F1729"/>
</svg>
