<svg width="20" height="20" viewBox="0 0 20 20" fill="none" xmlns="http://www.w3.org/2000/svg">
<g clip-path="url(#clip0_35_88)">
<path d="M17.5 20H15V15.8333C15 15.3913 14.8244 14.9674 14.5118 14.6548C14.1993 14.3423 13.7754 14.1667 13.3333 14.1667H6.66667C6.22464 14.1667 5.80072 14.3423 5.48816 14.6548C5.17559 14.9674 5 15.3913 5 15.8333V20H2.5V15.8333C2.50132 14.7287 2.94073 13.6696 3.72185 12.8885C4.50296 12.1074 5.562 11.668 6.66667 11.6667H13.3333C14.438 11.668 15.497 12.1074 16.2782 12.8885C17.0593 13.6696 17.4987 14.7287 17.5 15.8333V20Z" fill="#E7DCDC"/>
<path d="M10 10C9.0111 10 8.0444 9.70676 7.22215 9.15735C6.39991 8.60794 5.75904 7.82705 5.3806 6.91342C5.00217 5.99979 4.90315 4.99446 5.09608 4.02455C5.289 3.05465 5.76521 2.16373 6.46447 1.46447C7.16373 0.765206 8.05465 0.289002 9.02455 0.0960758C9.99446 -0.0968503 10.9998 0.00216643 11.9134 0.380605C12.827 0.759043 13.6079 1.39991 14.1573 2.22215C14.7068 3.0444 15 4.0111 15 5C14.9987 6.32568 14.4715 7.59668 13.5341 8.53407C12.5967 9.47147 11.3257 9.99868 10 10ZM10 2.5C9.50555 2.5 9.0222 2.64662 8.61108 2.92133C8.19995 3.19603 7.87952 3.58648 7.6903 4.04329C7.50108 4.50011 7.45158 5.00278 7.54804 5.48773C7.6445 5.97268 7.8826 6.41814 8.23223 6.76777C8.58187 7.1174 9.02732 7.3555 9.51228 7.45197C9.99723 7.54843 10.4999 7.49892 10.9567 7.3097C11.4135 7.12048 11.804 6.80005 12.0787 6.38893C12.3534 5.97781 12.5 5.49446 12.5 5C12.5 4.33696 12.2366 3.70108 11.7678 3.23224C11.2989 2.76339 10.663 2.5 10 2.5Z" fill="#E7DCDC"/>
</g>
<defs>
<clipPath id="clip0_35_88">
<rect width="20" height="20" fill="white"/>
</clipPath>
</defs>
</svg>
